<?xml version="1.0" standalone="no"?>
<!DOCTYPE svg PUBLIC "-//W3C//DTD SVG 20010904//EN"
 "http://www.w3.org/TR/2001/REC-SVG-20010904/DTD/svg10.dtd">
<svg version="1.0" xmlns="http://www.w3.org/2000/svg"
 width="153.000000pt" height="40.000000pt" viewBox="0 0 153.000000 40.000000"
 preserveAspectRatio="xMidYMid meet">

<g transform="translate(0.000000,40.000000) scale(0.100000,-0.100000)"
fill="#000000" stroke="none">
<path d="M106 203 c-10 -49 -19 -96 -22 -105 -5 -16 2 -18 55 -18 48 0 61 3
61 15 0 11 -11 15 -40 15 -45 0 -43 -9 -20 90 22 94 21 90 2 90 -16 0 -22 -14
-36 -87z"/>
<path d="M260 233 c-6 -32 -14 -68 -17 -80 -7 -30 37 -73 75 -73 50 0 79 32
96 110 20 85 20 100 2 100 -10 0 -20 -24 -31 -75 -18 -79 -34 -105 -64 -105
-39 0 -46 26 -30 106 14 69 14 74 -2 74 -13 0 -20 -14 -29 -57z"/>
<path d="M466 203 c-10 -49 -19 -96 -22 -105 -4 -13 0 -18 14 -18 15 0 21 9
26 40 5 31 11 40 26 40 14 0 22 -11 30 -40 8 -29 16 -40 30 -40 18 0 18 2 5
47 -8 27 -15 49 -15 51 0 1 7 2 15 2 8 0 19 9 25 19 28 53 -3 91 -72 91 l-45
0 -17 -87z m102 28 c4 -27 -12 -41 -47 -41 -19 0 -22 4 -17 23 3 12 6 28 6 35
0 9 10 12 28 10 20 -2 28 -9 30 -27z"/>
<path d="M706 268 c-27 -43 -106 -180 -106 -184 0 -2 8 -4 18 -4 10 0 25 11
32 25 11 21 21 25 57 25 37 0 43 -3 43 -20 0 -19 25 -38 36 -28 2 3 -2 47 -11
99 -8 52 -15 97 -15 102 0 17 -41 5 -54 -15z m34 -68 c0 -38 -2 -40 -31 -40
l-30 0 22 40 c13 22 26 40 31 40 4 0 8 -18 8 -40z"/>
<path d="M845 258 c9 -58 25 -163 25 -170 0 -5 8 -8 19 -8 13 0 36 31 79 106
52 91 58 105 40 102 -14 -2 -33 -27 -62 -80 -23 -43 -44 -78 -47 -78 -4 0 -10
36 -13 80 -7 71 -10 80 -27 80 -17 0 -19 -5 -14 -32z"/>
<path d="M1096 268 c-27 -43 -106 -180 -106 -184 0 -2 8 -4 18 -4 10 0 25 11
32 25 11 21 21 25 57 25 37 0 43 -3 43 -20 0 -19 25 -38 36 -28 2 3 -2 47 -11
99 -8 52 -15 97 -15 102 0 17 -41 5 -54 -15z m34 -68 c0 -38 -2 -40 -31 -40
l-30 0 22 40 c13 22 26 40 31 40 4 0 8 -18 8 -40z"/>
<path d="M1232 188 c-11 -57 -19 -105 -17 -107 15 -15 33 17 44 78 7 39 16 71
21 71 4 0 23 -34 41 -75 23 -53 38 -75 51 -75 19 0 19 1 43 118 18 90 18 92 1
92 -10 0 -20 -26 -32 -81 l-18 -82 -37 82 c-28 60 -43 81 -57 81 -16 0 -22
-15 -40 -102z"/>
</g>
</svg>
